#!OML:ASF H:\Terrain\Patient Classification 1\Walking\steve\steve.ASF
:FULLY-SPECIFIED
:DEGREES
154
root 7.49049 15.7538 -0.059798 5.98791 2.10908 0.939253
lowerback 0.77519 0.474741 1.6245
upperback -3.18354 0.767909 2.69859
thorax -3.72773 0.379669 1.8395
lowerneck -11.5071 1.14835 -2.84534
upperneck 8.28419 2.41253 -3.80531
head 4.38027 0.865858 -0.543483
rclavicle 6.93262e-015 -3.97569e-015
rhumerus -75.6687 -29.3191 -38.6851
rradius 14.5485
rwrist 26.5251
rhand -11.652 -40.442
rfingers 7.12502
rthumb 14.3924 -69.923
lclavicle 6.93262e-015 -3.97569e-015
lhumerus -20.0887 -8.34234 89.3345
lradius 65.9707
lwrist 31.8447
lhand -28.3356 -16.6585
lfingers 7.12502
lthumb -1.70999 13.3143
rfemur -42.0617 3.26458 21.9409
rtibia 41.1733
rfoot -5.5945 5.66482
rtoes 7.23123
lfemur 6.67133 -0.325455 -22.1188
ltibia 42.0718
lfoot 17.4962 7.30295
ltoes -1.48752
155
root 7.48403 15.7848 0.185187 5.72367 1.88432 0.22733
lowerback 0.938921 0.604666 2.31325
upperback -3.08502 0.972264 2.9651
thorax -3.71765 0.465369 1.71939
lowerneck -11.4579 1.19926 -2.7234
upperneck 8.03653 2.46056 -3.92375
head 4.29914 0.89333 -0.597053
rclavicle 4.91992e-015 3.18055e-015
rhumerus -74.1539 -29.2596 -40.4855
rradius 14.851
rwrist 25.2928
rhand -11.5717 -40.3846
rfingers 7.12502
rthumb 14.4697 -69.8601
lclavicle 4.91992e-015 3.18055e-015
lhumerus -20.7857 -8.90485 89.6995
lradius 64.9163
lwrist 32.5329
lhand -29.0558 -16.9503
lfingers 7.12502
lthumb -2.40556 13.0159
rfemur -40.9494 3.26742 23.042
rtibia 41.5014
rfoot -6.01254 6.45058
rtoes 9.09338
lfemur 5.04655 -0.173474 -21.2404
ltibia 45.5534
lfoot 18.89 10.8564
ltoes -0.574503
156
root 7.46838 15.8188 0.415501 5.58682 1.90397 -0.130857
lowerback 1.05056 0.664839 2.68496
upperback -3.00731 1.06807 3.04589
thorax -3.69738 0.503666 1.58975
lowerneck -11.4495 1.27861 -2.59588
upperneck 7.80983 2.5204 -3.77699
head 4.22715 0.941304 -0.56896
rclavicle -9.39258e-015 7.95139e-015
rhumerus -72.8037 -29.4119 -42.0678
rradius 15.1639
rwrist 24.7039
rhand -11.2326 -40.5125
rfingers 7.12502
rthumb 14.7964 -69.9643
lclavicle -9.39258e-015 7.95139e-015
lhumerus -21.4352 -9.36325 90.025
lradius 63.567
lwrist 33.0755
lhand -29.4004 -17.517
lfingers 7.12502
lthumb -2.73836 12.4451
rfemur -39.9243 3.11708 23.7283
rtibia 41.6078
rfoot -6.64669 6.85736
rtoes 8.20609
lfemur 3.35004 -0.109975 -20.6698
ltibia 48.8643
lfoot 18.5236 15.8412
ltoes 4.28807
157
root 7.44513 15.8582 0.644883 5.44303 2.11929 -0.0307157
lowerback 1.05526 0.670773 2.47553
upperback -2.87305 1.06422 3.0359
thorax -3.56373 0.50875 1.69669
lowerneck -11.4514 1.23926 -2.63985
upperneck 7.71682 2.44532 -3.53659
head 4.19402 0.919343 -0.493523
rclavicle -1.43653e-015 -9.54166e-015
rhumerus -71.2816 -29.7562 -43.6041
rradius 15.2136
rwrist 24.0045
rhand -11.4187 -40.368
rfingers 7.12502
rthumb 14.6171 -69.8328
lclavicle -1.43653e-015 -9.54166e-015
lhumerus -22.3822 -9.36176 90.511
lradius 62.7104
lwrist 32.9724
lhand -28.9049 -17.2989
lfingers 7.12502
lthumb -2.25988 12.6688
rfemur -38.8315 2.87199 23.8779
rtibia 41.652
rfoot -7.5002 6.87071
rtoes 5.10684
lfemur 1.7379 -0.133141 -20.5667
ltibia 51.9169
lfoot 16.6413 19.9691
ltoes 12.1529
158
root 7.43388 15.9015 0.873742 5.32311 2.06247 -0.480376
lowerback 1.05604 0.741916 2.78685
upperback -2.79171 1.17128 3.24746
thorax -3.48071 0.557442 1.73687
lowerneck -11.334 1.08859 -2.64152
upperneck 7.33413 2.23298 -3.55534
head 4.50932 0.826447 -0.567196
rclavicle 1.43738e-014 -6.36111e-015
rhumerus -69.0593 -29.5419 -46.1163
rradius 15.2898
rwrist 22.0632
rhand -11.6298 -40.1607
rfingers 7.12502
rthumb 14.4137 -69.6402
lclavicle 1.43738e-014 -6.36111e-015
lhumerus -23.4038 -9.10029 91.0796
lradius 61.8347
lwrist 32.6238
lhand -28.4431 -16.2772
lfingers 7.12502
lthumb -1.81387 13.6948
rfemur -37.6812 3.11125 24.5273
rtibia 41.5898
rfoot -8.33529 6.85274
rtoes 3.72117
lfemur 0.0276502 0.0724593 -19.9363
ltibia 54.8216
lfoot 12.8442 21.0986
ltoes 17.3417
159
root 7.41424 15.9406 1.09691 5.22625 1.9988 -0.973848
lowerback 1.19816 0.846203 3.10724
upperback -2.79089 1.33288 3.41483
thorax -3.56016 0.631148 1.72238
lowerneck -11.3799 0.955914 -2.74605
upperneck 7.93144 2.08959 -3.54898
head 4.24589 0.735806 -0.504591
rclavicle -4.3391e-015 4.6118e-014
rhumerus -67.0059 -29.2306 -48.5353
rradius 15.5213
rwrist 20.2168
rhand -11.8755 -40.2396
rfingers 7.12502
rthumb 14.177 -69.7358
lclavicle -4.3391e-015 4.6118e-014
lhumerus -24.2656 -8.82873 91.6331
lradius 60.4252
lwrist 32.0185
lhand -28.104 -16.0188
lfingers 7.12502
lthumb -1.48632 13.9558
rfemur -36.5404 3.54074 25.1631
rtibia 41.4296
rfoot -9.09322 6.79026
rtoes 5.12731
lfemur -1.86042 0.332295 -19.2205
ltibia 57.5588
lfoot 13.5548 19.8593
ltoes 15.0102
160
root 7.39963 15.9839 1.32286 5.22065 2.01889 -1.38725
lowerback 1.09962 1.01278 3.6457
upperback -2.77547 1.5627 3.36287
thorax -3.47588 0.730767 1.36012
lowerneck -11.5837 0.852618 -2.62499
upperneck 8.35293 1.94014 -3.38362
head 4.40725 0.663784 -0.481973
rclavicle -3.1849e-014 1.59028e-015
rhumerus -65.7333 -29.9133 -49.5189
rradius 15.5854
rwrist 20.2046
rhand -12.565 -39.8427
rfingers 7.12502
rthumb 13.5125 -69.3843
lclavicle -3.1849e-014 1.59028e-015
lhumerus -24.91 -9.21998 92.0419
lradius 58.6719
lwrist 31.6019
lhand -28.1749 -16.1856
lfingers 7.12502
lthumb -1.55488 13.7885
rfemur -35.3931 3.79221 25.685
rtibia 41.1664
rfoot -9.883 6.75821
rtoes 5.55426
lfemur -3.8038 0.578827 -18.6215
ltibia 60.0572
lfoot 11.9507 16.6806
ltoes 10.3243
161
root 7.3862 16.0336 1.55253 5.40584 1.95674 -1.90584
lowerback 0.643283 1.17676 4.19645
upperback -2.75586 1.76631 3.41949
thorax -3.18438 0.822175 1.11328
lowerneck -11.5982 0.829279 -2.60169
upperneck 8.51717 1.89548 -3.23141
head 4.45833 0.648031 -0.441625
rclavicle -9.69696e-015 7.15625e-015
rhumerus -64.266 -30.6429 -50.4756
rradius 15.7649
rwrist 20.5318
rhand -12.5207 -39.6385
rfingers 7.12502
rthumb 13.5552 -69.1773
lclavicle -9.69696e-015 7.15625e-015
lhumerus -25.3436 -9.71225 92.4103
lradius 56.6829
lwrist 31.7369
lhand -28.3404 -15.6359
lfingers 7.12502
lthumb -1.7147 14.3369
rfemur -34.4094 3.98893 26.3598
rtibia 40.9009
rfoot -10.6688 6.82668
rtoes 4.45739
lfemur -5.8741 1.03503 -17.908
ltibia 62.3203
lfoot 11.9222 13.6026
ltoes 6.96352
162
root 7.36415 16.0729 1.77662 5.49559 1.83584 -1.993
lowerback 0.38645 1.30184 4.05055
upperback -2.73247 1.9131 3.4818
thorax -3.02004 0.902529 1.26023
lowerneck -11.4924 0.822509 -2.81203
upperneck 8.60587 1.9004 -3.05839
head 4.46465 0.653215 -0.354278
rclavicle 5.40446e-015 1.59028e-014
rhumerus -62.0195 -30.3081 -52.8694
rradius 16.3445
rwrist 19.2269
rhand -12.6396 -39.0993
rfingers 7.12502
rthumb 13.4406 -68.6456
lclavicle 5.40446e-015 1.59028e-014
lhumerus -25.9354 -9.59158 92.8693
lradius 54.5988
lwrist 31.4762
lhand -28.0757 -15.7434
lfingers 7.12502
lthumb -1.459 14.2313
rfemur -33.4297 4.03359 26.6625
rtibia 40.6247
rfoot -11.2485 7.05238
rtoes 3.00128
lfemur -7.81845 1.53383 -17.6865
ltibia 64.3349
lfoot 11.7597 10.6346
ltoes 1.916
163
root 7.34848 16.1008 1.99272 5.42714 1.6209 -1.84669
lowerback 0.385635 1.43738 3.75646
upperback -2.71687 2.08598 3.43105
thorax -3.00968 0.995701 1.36686
lowerneck -11.2042 0.73538 -3.02337
upperneck 8.61734 1.77445 -2.78259
head 4.41577 0.603596 -0.245215
rclavicle 1.68687e-014 -1.74931e-014
rhumerus -59.7928 -29.9086 -55.1297
rradius 16.7709
rwrist 17.9932
rhand -13.7287 -38.4519
rfingers 7.12502
rthumb 12.3907 -68.0646
lclavicle 1.68687e-014 -1.74931e-014
lhumerus -26.7182 -9.43886 93.2503
lradius 52.4543
lwrist 30.9302
lhand -28.0291 -16.591
lfingers 7.12502
lthumb -1.41406 13.3841
rfemur -32.3159 4.0371 26.6983
rtibia 40.268
rfoot -11.7326 7.35402
rtoes 2.16027
lfemur -9.63747 1.94044 -17.8366
ltibia 66.1156
lfoot 11.1752 8.13042
ltoes -3.11805
164
root 7.34405 16.1385 2.21712 5.32641 1.27701 -2.04493
lowerback 0.363897 1.59431 4.02483
upperback -2.72542 2.29846 3.39902
thorax -2.99475 1.09447 1.1791
lowerneck -11.0041 0.684106 -3.02894
upperneck 8.8413 1.69367 -2.67312
head 4.45065 0.567226 -0.216465
rclavicle 2.67117e-015 2.8625e-014
rhumerus -58.4897 -31.0963 -55.0739
rradius 16.5113
rwrist 19.2244
rhand -14.252 -37.6463
rfingers 7.12502
rthumb 11.8861 -67.2889
lclavicle 2.67117e-015 2.8625e-014
lhumerus -27.6203 -9.11869 93.457
lradius 50.3871
lwrist 30.2325
lhand -27.3147 -16.656
lfingers 7.12502
lthumb -0.724008 13.3225
rfemur -31.0278 4.12556 27.0609
rtibia 39.8497
rfoot -12.392 7.59684
rtoes 2.18587
lfemur -11.4419 2.47927 -17.6187
ltibia 67.6701
lfoot 8.65204 6.0182
ltoes -14.3278
165
root 7.34205 16.183 2.44412 5.24664 1.01009 -2.18525
lowerback 0.245224 1.70983 4.30692
upperback -2.7479 2.44892 3.33678
thorax -2.93631 1.16211 0.957606
lowerneck -10.9058 0.716727 -2.98551
upperneck 9.33517 1.74292 -2.66046
head 4.58699 0.583939 -0.215404
rclavicle 1.80024e-014 1.82882e-014
rhumerus -57.7309 -33.4116 -53.5927
rradius 15.9022
rwrist 22.114
rhand -14.7743 -38.8422
rfingers 7.12502
rthumb 11.3824 -68.5133
lclavicle 1.80024e-014 1.82882e-014
lhumerus -28.6425 -8.52895 93.6517
lradius 48.3067
lwrist 29.276
lhand -25.8965 -16.3566
lfingers 7.12502
lthumb 0.64573 13.6221
rfemur -29.7197 4.17767 27.3139
rtibia 39.3574
rfoot -12.8562 7.94296
rtoes 2.97853
lfemur -13.1704 2.92275 -17.4732
ltibia 68.9887
lfoot 7.62911 4.7551
ltoes -12.7697
166
root 7.3368 16.2154 2.65009 5.30405 0.911399 -2.19408
lowerback 0.185618 1.78135 4.322
upperback -2.89357 2.54798 3.31268
thorax -3.0507 1.20807 0.921888
lowerneck -10.4726 0.72164 -3.08554
upperneck 9.55927 1.75131 -2.63443
head 4.58349 0.585144 -0.191816
rclavicle -1.14301e-014 2.14687e-014
rhumerus -56.3682 -34.7603 -53.4118
rradius 15.5739
rwrist 23.7562
rhand -15.4451 -40.6313
rfingers 7.12502
rthumb 10.7354 -70.3369
lclavicle -1.14301e-014 2.14687e-014
lhumerus -29.6608 -7.83234 93.8626
lradius 46.0355
lwrist 28.2749
lhand -24.9064 -16.043
lfingers 7.12502
lthumb 1.60199 13.9308
rfemur -28.6786 4.20733 27.4072
rtibia 38.765
rfoot -12.8683 8.32148
rtoes 3.23481
lfemur -15.077 3.15625 -17.4851
ltibia 70.1113
lfoot 6.18798 4.40806
ltoes -8.25634
167
root 7.3269 16.2491 2.85069 5.49066 0.815716 -2.33964
lowerback 0.14255 1.85163 4.36435
upperback -3.10207 2.65283 3.36087
thorax -3.24219 1.25565 0.943941
lowerneck -9.90281 0.691613 -3.20082
upperneck 9.51245 1.70216 -2.6454
head 4.47401 0.562322 -0.182262
rclavicle 1.86609e-014 -1.74931e-014
rhumerus -53.5793 -33.6256 -56.5407
rradius 16.2058
rwrist 21.7799
rhand -16.1343 -41.075
rfingers 7.12502
rthumb 10.0706 -70.8141
lclavicle 1.86609e-014 -1.74931e-014
lhumerus -30.6548 -6.82044 93.8825
lradius 43.8504
lwrist 26.9638
lhand -23.9457 -15.1187
lfingers 7.12502
lthumb 2.52984 14.8461
rfemur -27.7656 4.37436 27.6507
rtibia 38.131
rfoot -12.9625 8.45986
rtoes 2.41157
lfemur -17.1811 3.31981 -17.3579
ltibia 71.0156
lfoot 4.06365 4.4395
ltoes -7.30271
168
root 7.31846 16.2874 3.06669 5.62809 0.598981 -2.42233
lowerback -0.11218 1.92181 4.38045
upperback -3.10839 2.72915 3.37374
thorax -3.10381 1.29563 0.955243
lowerneck -9.82332 0.728058 -3.23758
upperneck 9.71367 1.75597 -2.60767
head 4.52206 0.585988 -0.160958
rclavicle 1.87852e-014 7.15625e-015
rhumerus -50.625 -32.3713 -59.7961
rradius 16.9802
rwrist 19.1202
rhand -17.3783 -40.2384
rfingers 7.12502
rthumb 8.87033 -70.0319
lclavicle 1.87852e-014 7.15625e-015
lhumerus -31.3772 -5.84374 93.8096
lradius 41.5887
lwrist 25.7606
lhand -23.2684 -14.1088
lfingers 7.12502
lthumb 3.18391 15.8472
rfemur -26.7058 4.58733 27.8007
rtibia 37.5152
rfoot -13.1479 8.66218
rtoes 3.57025
lfemur -19.0704 3.43707 -17.4018
ltibia 71.6809
lfoot 2.11002 4.46852
ltoes -6.46587
